<?xml version="1.0" encoding="UTF-8"?>
<svg width="73px" height="82px" viewBox="0 0 73 82" version="1.1" xmlns="http://www.w3.org/2000/svg" xmlns:xlink="http://www.w3.org/1999/xlink">
    <title>Group 3</title>
    <defs>
        <filter x="-13.0%" y="-60.0%" width="126.1%" height="220.0%" filterUnits="objectBoundingBox" id="filter-1">
            <feGaussianBlur stdDeviation="2" in="SourceGraphic"></feGaussianBlur>
        </filter>
    </defs>
    <g id="02_Dashboard" stroke="none" stroke-width="1" fill="none" fill-rule="evenodd">
        <g id="Dashboard-Inicio" transform="translate(-1042.000000, -354.000000)">
            <g id="Group-3" transform="translate(1042.000000, 354.000000)">
                <ellipse id="Oval" fill="#8F8A8A" opacity="0.431118278" filter="url(#filter-1)" cx="36" cy="71" rx="23" ry="5"></ellipse>
                <g id="Group">
                    <path d="M18.7911029,10.7908181 L54.2088971,10.7908181 C58.6271751,10.7908181 62.2088971,14.3725401 62.2088971,18.7908181 L62.2088971,54.2086122 C62.2088971,58.6268902 58.6271751,62.2086122 54.2088971,62.2086122 L18.7911029,62.2086122 C14.3728249,62.2086122 10.7911029,58.6268902 10.7911029,54.2086122 L10.7911029,18.7908181 C10.7911029,14.3725401 14.3728249,10.7908181 18.7911029,10.7908181 Z" id="Rectangle" fill="#EDEAEA" transform="translate(36.500000, 36.499715) rotate(45.000000) translate(-36.500000, -36.499715) "></path>
                    <g transform="translate(18.250000, 19.466667)" fill="#FFFFFF" id="Pieces/Icons/question">
                        <path d="M20.7919513,22.0444548 L20.7919513,25.4663323 C20.7919513,25.6184155 20.7308463,25.7514884 20.6086364,25.865551 C20.4864265,25.9796136 20.3438484,26.0366449 20.180902,26.0366449 L16.5146048,26.0366449 C16.3516584,26.0366449 16.2090803,25.9796136 16.0868704,25.865551 C15.9646605,25.7514884 15.9035555,25.6184155 15.9035555,25.4663323 L15.9035555,22.0444548 C15.9035555,21.8923716 15.9646605,21.7592987 16.0868704,21.6452361 C16.2090803,21.5311735 16.3516584,21.4741422 16.5146048,21.4741422 L20.180902,21.4741422 C20.3438484,21.4741422 20.4864265,21.5311735 20.6086364,21.6452361 C20.7308463,21.7592987 20.7919513,21.8923716 20.7919513,22.0444548 Z M25.6192405,13.4898038 C25.6192405,14.0030852 25.5403132,14.4830987 25.3824586,14.9298444 C25.224604,15.376589 25.0463812,15.7401627 24.8477902,16.0205654 C24.6491992,16.3009693 24.369135,16.5837493 24.0075976,16.8689055 C23.6460602,17.1540616 23.3532658,17.3608 23.1292142,17.4891206 C22.9051626,17.6174407 22.5945445,17.7861581 22.19736,17.9952729 C21.7798098,18.2138929 21.4310036,18.5228123 21.1509415,18.9220311 C20.8708776,19.3212498 20.7308457,19.6396738 20.7308457,19.877303 C20.7308457,20.0388914 20.6697407,20.1933511 20.5475308,20.340682 C20.4253209,20.488013 20.2827428,20.5616785 20.1197965,20.5616785 L16.4534992,20.5616785 C16.300737,20.5616785 16.1708891,20.4737552 16.0639557,20.2979088 C15.9570222,20.1220623 15.9035555,19.9438397 15.9035555,19.763241 L15.9035555,19.1216396 C15.9035555,18.3327067 16.2345406,17.5889235 16.8965107,16.89029 C17.5584807,16.1916564 18.2866466,15.6759978 19.0810083,15.3433141 C19.6818731,15.0866734 20.1096075,14.8205276 20.3642114,14.5448766 C20.6188153,14.2692256 20.7461173,13.9080281 20.7461173,13.4612841 C20.7461173,13.0620653 20.5093357,12.7103724 20.0357725,12.4062053 C19.5622094,12.1020388 19.0148097,11.9499556 18.3935737,11.9499556 C17.7316036,11.9499556 17.1816581,12.0877811 16.7437372,12.3634321 C16.3872915,12.6010624 15.8424408,13.147611 15.109185,14.0030778 C14.976791,14.155161 14.8189367,14.2312027 14.6356222,14.2312027 C14.5134123,14.2312027 14.3861103,14.1931817 14.2537163,14.1171398 L11.748411,12.3349166 C11.616017,12.2398643 11.5370897,12.1210492 11.5116292,11.9784711 C11.4861688,11.835893 11.5141752,11.7028201 11.5956484,11.5792523 C13.2251118,9.05086976 15.5878359,7.78667847 18.6838207,7.78667847 C19.4985554,7.78667847 20.3183789,7.93400914 21.143291,8.22867047 C21.9682093,8.52333181 22.7116535,8.91779826 23.3736235,9.41206982 C24.0355936,9.90634082 24.5753526,10.5122988 24.9929004,11.2299438 C25.4104507,11.9475865 25.6192405,12.7008743 25.6192405,13.4898072 L25.6192405,13.4898038 Z" id="question"></path>
                    </g>
                </g>
            </g>
        </g>
    </g>
</svg>