<?xml version="1.0" encoding="UTF-8"?>
<svg width="25.71px" height="25.71px" viewBox="0 0 25.71 25.71" version="1.1" xmlns="http://www.w3.org/2000/svg" xmlns:xlink="http://www.w3.org/1999/xlink">
    <title>nivel_inicial3</title>
    <defs>
        <filter id="filter-1">
            <feColorMatrix in="SourceGraphic" type="matrix" values="0 0 0 0 1.000000 0 0 0 0 1.000000 0 0 0 0 1.000000 0 0 0 1.000000 0"></feColorMatrix>
        </filter>
    </defs>
    <g id="nivel_inicial3" stroke="none" stroke-width="1" fill="none" fill-rule="evenodd">
        <circle id="Oval-Copy-3" fill="#2FB7E9" cx="12.855" cy="12.855" r="12.855"></circle>
        <text id="i" font-family="Arial-BoldMT, Arial" font-size="12" font-weight="bold" fill="#FFFFFF">
            <tspan x="11.6660156" y="17">i</tspan>
        </text>
        <g filter="url(#filter-1)" id="Group-13">
            <g transform="translate(5.000000, 3.000000)">
                <path d="M8.0553,1.9282 C12.4023,1.9282 15.9263,5.4512 15.9263,9.7982 C15.9263,14.1452 12.4023,17.6692 8.0553,17.6692 C3.7083,17.6692 0.1853,14.1452 0.1853,9.7982 C0.1853,8.7122 0.4053,7.6772 0.8033,6.7352" id="Stroke-1" stroke="#1D1D1B" stroke-width="2"></path>
                <polygon id="Fill-3" fill="#1D1D1B" points="1.691 5.5996 -2.22044605e-16 4.2086 0.273 3.8756 1.972 4.1126 0.842 3.1836 1.103 2.8666 2.795 4.2576 2.513 4.6006 0.849 4.3746 1.952 5.2826"></polygon>
                <path d="M3.0997,4.0337 L2.0777,2.8207 L2.3977,2.5497 L3.4207,3.7627 L3.0997,4.0337 Z M1.9387,2.6557 L1.6877,2.3587 L2.0087,2.0887 L2.2597,2.3857 L1.9387,2.6557 Z" id="Fill-5" fill="#1D1D1B"></path>
                <path d="M4.0616,3.3032 L2.6886,2.2822 L3.0646,2.0532 L3.7416,2.5882 L3.9566,2.7742 C3.9396,2.7032 3.9286,2.6572 3.9226,2.6352 C3.9116,2.5902 3.9006,2.5432 3.8906,2.4972 L3.7266,1.6482 L4.0946,1.4232 L4.3836,3.1062 L4.0616,3.3032 Z" id="Fill-7" fill="#1D1D1B"></path>
                <path d="M5.6412,1.5313 C5.5972,1.4183 5.5362,1.3423 5.4582,1.3023 C5.3802,1.2633 5.3012,1.2593 5.2212,1.2883 C5.1352,1.3193 5.0752,1.3763 5.0412,1.4593 C5.0082,1.5423 5.0112,1.6373 5.0512,1.7453 L5.6412,1.5313 Z M5.7632,1.9383 L6.1812,1.8623 C6.1822,2.0243 6.1422,2.1633 6.0602,2.2783 C5.9782,2.3933 5.8552,2.4803 5.6922,2.5393 C5.4322,2.6343 5.2092,2.6183 5.0242,2.4943 C4.8762,2.3933 4.7652,2.2403 4.6902,2.0333 C4.6002,1.7863 4.5952,1.5693 4.6732,1.3823 C4.7522,1.1953 4.8902,1.0663 5.0882,0.9943 C5.3092,0.9143 5.5112,0.9243 5.6932,1.0243 C5.8742,1.1243 6.0162,1.3263 6.1202,1.6313 L5.1322,1.9893 C5.1772,2.1053 5.2422,2.1843 5.3262,2.2283 C5.4112,2.2713 5.4982,2.2763 5.5892,2.2433 C5.6512,2.2203 5.6972,2.1853 5.7262,2.1363 C5.7572,2.0873 5.7692,2.0213 5.7632,1.9383 L5.7632,1.9383 Z" id="Fill-9" fill="#1D1D1B"></path>
                <polygon id="Fill-11" fill="#1D1D1B" points="6.6148 2.23 6.1848 0.082 6.5958 0 7.0268 2.147"></polygon>
            </g>
        </g>
    </g>
</svg>